<mxfile host="app.diagrams.net" modified="2022-09-10T14:22:44.824Z" agent="5.0 (Windows NT 10.0; Win64; x64) AppleWebKit/537.36 (KHTML, like Gecko) Chrome/105.0.0.0 Safari/537.36 Edg/105.0.1343.27" etag="ccgyJjh2u_fh5IK0NdI3" version="20.2.8" type="github">
  <diagram id="UVleW9ZLnWBH4vKbW5li" name="Страница 1">
    <mxGraphModel dx="1188" dy="1292" grid="1" gridSize="10" guides="1" tooltips="1" connect="1" arrows="1" fold="1" page="1" pageScale="1" pageWidth="827" pageHeight="1169" math="0" shadow="0">
      <root>
        <mxCell id="0" />
        <mxCell id="1" parent="0" />
        <mxCell id="k5DhEc9g0b8u-VvTdeRo-3" value="" style="edgeStyle=orthogonalEdgeStyle;rounded=0;orthogonalLoop=1;jettySize=auto;html=1;" edge="1" parent="1" source="k5DhEc9g0b8u-VvTdeRo-1" target="k5DhEc9g0b8u-VvTdeRo-2">
          <mxGeometry relative="1" as="geometry" />
        </mxCell>
        <mxCell id="k5DhEc9g0b8u-VvTdeRo-1" value="П1(1, Ф1)" style="rounded=1;whiteSpace=wrap;html=1;" vertex="1" parent="1">
          <mxGeometry x="250" y="230" width="120" height="60" as="geometry" />
        </mxCell>
        <mxCell id="k5DhEc9g0b8u-VvTdeRo-5" value="" style="edgeStyle=orthogonalEdgeStyle;rounded=0;orthogonalLoop=1;jettySize=auto;html=1;" edge="1" parent="1" source="k5DhEc9g0b8u-VvTdeRo-2" target="k5DhEc9g0b8u-VvTdeRo-4">
          <mxGeometry relative="1" as="geometry" />
        </mxCell>
        <mxCell id="k5DhEc9g0b8u-VvTdeRo-2" value="Д1" style="ellipse;whiteSpace=wrap;html=1;rounded=1;" vertex="1" parent="1">
          <mxGeometry x="275" y="370" width="70" height="60" as="geometry" />
        </mxCell>
        <mxCell id="k5DhEc9g0b8u-VvTdeRo-7" value="" style="edgeStyle=orthogonalEdgeStyle;rounded=0;orthogonalLoop=1;jettySize=auto;html=1;" edge="1" parent="1" source="k5DhEc9g0b8u-VvTdeRo-4" target="k5DhEc9g0b8u-VvTdeRo-6">
          <mxGeometry relative="1" as="geometry" />
        </mxCell>
        <mxCell id="k5DhEc9g0b8u-VvTdeRo-4" value="П2(2, не Ф5)" style="whiteSpace=wrap;html=1;rounded=1;" vertex="1" parent="1">
          <mxGeometry x="250" y="510" width="120" height="60" as="geometry" />
        </mxCell>
        <mxCell id="k5DhEc9g0b8u-VvTdeRo-11" value="" style="edgeStyle=orthogonalEdgeStyle;rounded=0;orthogonalLoop=1;jettySize=auto;html=1;" edge="1" parent="1" source="k5DhEc9g0b8u-VvTdeRo-6" target="k5DhEc9g0b8u-VvTdeRo-10">
          <mxGeometry relative="1" as="geometry" />
        </mxCell>
        <mxCell id="k5DhEc9g0b8u-VvTdeRo-15" value="" style="edgeStyle=orthogonalEdgeStyle;rounded=0;orthogonalLoop=1;jettySize=auto;html=1;" edge="1" parent="1" source="k5DhEc9g0b8u-VvTdeRo-6" target="k5DhEc9g0b8u-VvTdeRo-14">
          <mxGeometry relative="1" as="geometry" />
        </mxCell>
        <mxCell id="k5DhEc9g0b8u-VvTdeRo-6" value="Д3" style="ellipse;whiteSpace=wrap;html=1;rounded=1;" vertex="1" parent="1">
          <mxGeometry x="280" y="650" width="60" height="50" as="geometry" />
        </mxCell>
        <mxCell id="k5DhEc9g0b8u-VvTdeRo-17" value="" style="edgeStyle=orthogonalEdgeStyle;rounded=0;orthogonalLoop=1;jettySize=auto;html=1;" edge="1" parent="1" source="k5DhEc9g0b8u-VvTdeRo-10" target="k5DhEc9g0b8u-VvTdeRo-16">
          <mxGeometry relative="1" as="geometry">
            <Array as="points">
              <mxPoint x="200" y="880" />
              <mxPoint x="325" y="880" />
            </Array>
          </mxGeometry>
        </mxCell>
        <mxCell id="k5DhEc9g0b8u-VvTdeRo-10" value="П3(3, Ф2)" style="whiteSpace=wrap;html=1;rounded=1;" vertex="1" parent="1">
          <mxGeometry x="140" y="780" width="120" height="40" as="geometry" />
        </mxCell>
        <mxCell id="k5DhEc9g0b8u-VvTdeRo-19" value="" style="edgeStyle=orthogonalEdgeStyle;rounded=0;orthogonalLoop=1;jettySize=auto;html=1;entryX=0.5;entryY=0;entryDx=0;entryDy=0;" edge="1" parent="1" source="k5DhEc9g0b8u-VvTdeRo-14" target="k5DhEc9g0b8u-VvTdeRo-16">
          <mxGeometry relative="1" as="geometry">
            <mxPoint x="282" y="800" as="targetPoint" />
          </mxGeometry>
        </mxCell>
        <mxCell id="k5DhEc9g0b8u-VvTdeRo-14" value="П4(3, Ф3 и не Д4)" style="whiteSpace=wrap;html=1;rounded=1;" vertex="1" parent="1">
          <mxGeometry x="360" y="780" width="116" height="40" as="geometry" />
        </mxCell>
        <mxCell id="k5DhEc9g0b8u-VvTdeRo-23" value="" style="edgeStyle=orthogonalEdgeStyle;rounded=0;orthogonalLoop=1;jettySize=auto;html=1;" edge="1" parent="1" source="k5DhEc9g0b8u-VvTdeRo-16" target="k5DhEc9g0b8u-VvTdeRo-22">
          <mxGeometry relative="1" as="geometry" />
        </mxCell>
        <mxCell id="k5DhEc9g0b8u-VvTdeRo-16" value="Д2" style="ellipse;whiteSpace=wrap;html=1;rounded=1;" vertex="1" parent="1">
          <mxGeometry x="290" y="930" width="70" height="60" as="geometry" />
        </mxCell>
        <mxCell id="k5DhEc9g0b8u-VvTdeRo-25" value="" style="edgeStyle=orthogonalEdgeStyle;rounded=0;orthogonalLoop=1;jettySize=auto;html=1;" edge="1" parent="1" source="k5DhEc9g0b8u-VvTdeRo-22" target="k5DhEc9g0b8u-VvTdeRo-24">
          <mxGeometry relative="1" as="geometry" />
        </mxCell>
        <mxCell id="k5DhEc9g0b8u-VvTdeRo-22" value="П5(4, Ф4)" style="whiteSpace=wrap;html=1;rounded=1;" vertex="1" parent="1">
          <mxGeometry x="265" y="1070" width="120" height="60" as="geometry" />
        </mxCell>
        <mxCell id="k5DhEc9g0b8u-VvTdeRo-24" value="Д4" style="ellipse;whiteSpace=wrap;html=1;rounded=1;" vertex="1" parent="1">
          <mxGeometry x="287.5" y="1210" width="75" height="60" as="geometry" />
        </mxCell>
      </root>
    </mxGraphModel>
  </diagram>
</mxfile>
